<svg xmlns="http://www.w3.org/2000/svg" viewBox="0 0 576 60.63"><defs>
	<style>
		.cls-1,.cls-3{fill:#859492;}.cls-2,.cls-4{fill:none;}.cls-2,.cls-3,.cls-4{stroke:#859492;stroke-width:0.68px;}.cls-2,.cls-3{stroke-miterlimit:10;}.cls-4{stroke-linecap:round;stroke-linejoin:round;}.cls-5{fill:currentColor;}.cls-6{fill:#d93928;}
		@media (prefers-color-scheme: dark) { .cls-5 { fill: #cccccc; } }
	</style>
</defs>
	<title>abcjs logo</title>
	<g id="Score"><path class="cls-1" d="M36.08,17.35h.62v8.14a3.12,3.12,0,0,1,1.85-.79,1.78,1.78,0,0,1,1.64,1.75c0,1.25-1.21,2.17-2.08,2.85a21.33,21.33,0,0,0-2,2Zm.61,12.56c.69-.81,2-2.1,2-3.27a1,1,0,0,0-.81-1.13c-.48-.08-1.14.65-1.14.92Z"/><path class="cls-1" d="M53.46,18.15c1.89.36,4.11.81,4.11,3.32s-2.78,3.63-5.36,3.63c-2.08,0-3.36-1.29-3.36-2.34,0-.85.39-1.58,1.28-1.58a1.31,1.31,0,0,1,1.41,1.32,1.23,1.23,0,0,1-.48,1c-.25.19-.5.27-.5.45,0,.43,1.49.57,1.74.57,1.44,0,2.21-1,2.21-2.74,0-2.32-.76-3.24-2.74-3.24-.37,0-.69,0-1,0s-.25-.53,0-.56.71-.06,1.07-.1c1.82-.18,2.3-1,2.3-2.8s-.37-2.27-1.66-2.27c-.28,0-1.26,0-1.26.48,0,.14.21.21.43.38a1.13,1.13,0,0,1,.42,1A1.22,1.22,0,0,1,50.74,16a1.25,1.25,0,0,1-1.19-1.28c0-1.44,1.35-2.38,3.4-2.38,1.62,0,3.95.72,3.95,2.82,0,1.91-2,2.6-3.44,2.93Z"/><path class="cls-1" d="M55.77,25.08V33.6H57c.91,0,.56-.71.64-1.39h.49v3.27h-.49c0-1.24.18-1.31-1.06-1.31h-.8V37H57.2v.56H51.39V37H53V34.16H48.2c0-.54-.15-.58.18-1l5.59-8ZM53,33.6V27.24L48.71,33.6Z"/><rect class="cls-1" x="106.11" y="11.14" width="3.09" height="24.93"/><path class="cls-1" d="M28.1,32.37v-.11h0a5.41,5.41,0,0,0-4-5.41,5.28,5.28,0,0,0-.9-.1,4.75,4.75,0,0,0-1.41.18c-.36-1.79-.79-3.77-.91-4.37l.15-.2a13,13,0,0,0,2.65-5.75c.08-.38.15-.74.19-1.1a15.29,15.29,0,0,0-.06-4.57,10.5,10.5,0,0,0-.26-1.14C23,7.75,21.41,5.35,20,6.39c-2.19,1.61-2.34,5.45-2.24,8.48,0,.34,0,.67.08,1a25.35,25.35,0,0,0,1,4.46c-.63.76-1.28,1.51-2,2.36a14.18,14.18,0,0,0-3.34,6.62,9.79,9.79,0,0,0,2.39,8.53c1.88,2,4.2,3.16,6.82,2.44A30.21,30.21,0,0,1,23,43.65c0,1.49-.18,3-1.69,3.81a3.29,3.29,0,0,1-3.36-.23,2.15,2.15,0,0,0,2.58-2,2.49,2.49,0,0,0-2.1-2.87,3,3,0,0,0-1.11,0,2,2,0,0,0-.62.23,2.31,2.31,0,0,0-1.14,2.53,4.36,4.36,0,0,0,5.67,3.08,4.39,4.39,0,0,0,2.66-4,38.86,38.86,0,0,0-.21-4.38l.26-.13a8,8,0,0,0,3.89-5.26,8.82,8.82,0,0,0,.29-2.24ZM19.61,9.68c.74-1.94,2.34-2.42,2.9.39a11.45,11.45,0,0,1-.28,4.38,9.11,9.11,0,0,1-.27,1c-.11.29-.23.57-.37.86A14.8,14.8,0,0,1,20,18.8c-.17-.52-.48-1.67-.59-2.15-.06-.25-.11-.51-.16-.77A13.33,13.33,0,0,1,19.61,9.68Zm.84,30c-3.61-.4-6-4-5.93-7.27a10.18,10.18,0,0,1,2.54-5.93c.84-.93,1.76-1.74,2.62-2.62.24,1,.65,2.65.85,3.55a6.22,6.22,0,0,0-2.07,1.81l0,0a6,6,0,0,0-1.2,4.16A4.76,4.76,0,0,0,18,35.67a3.94,3.94,0,0,0,.85.93,4.2,4.2,0,0,1,2.25-6.53c.6,3,1.11,6.56,1.46,9.44A6.14,6.14,0,0,1,20.45,39.67ZM26.57,34c0,.07,0,.14,0,.21a6,6,0,0,1-1.14,3.21h0a6.85,6.85,0,0,1-.76.93,3.85,3.85,0,0,1-1.12.79c-.08-.81-.5-5.39-1.23-9.31h.18A3.94,3.94,0,0,1,26.57,34Z"/><circle class="cls-1" cx="115.76" cy="26.38" r="1.51"/><circle class="cls-1" cx="115.76" cy="20.63" r="1.51"/><path class="cls-1" d="M97.68,12.05a2.35,2.35,0,0,0-2-1.22,5.21,5.21,0,0,0-2.88.61,4.55,4.55,0,0,0-2.64,3.28.32.32,0,0,0,0,.14V43.22l-11.6,1.67V19.33a3.05,3.05,0,0,0,2.09.63,5.57,5.57,0,0,0,2.31-.63c2-1,3.13-3,2.46-4.37s-2.87-1.65-4.89-.61A4.92,4.92,0,0,0,78,17.08a.35.35,0,0,0-.13.26V45L66.09,46.67V28.9a3.12,3.12,0,0,0,2.1.63,5.61,5.61,0,0,0,2.31-.63,5.46,5.46,0,0,0,2.21-2A2.49,2.49,0,0,0,73,24.52a2.39,2.39,0,0,0-2-1.22,5.17,5.17,0,0,0-2.89.62,4.78,4.78,0,0,0-2.59,3,.39.39,0,0,0-.06.18V50.23l25.39-3.64V43.12h0V16.41a3,3,0,0,0,2.11.64,5.42,5.42,0,0,0,2.31-.63C97.26,15.38,98.36,13.42,97.68,12.05Z"/><path class="cls-1" d="M139.73,9c-.68-1.4-2.87-1.74-4.89-.77a4.37,4.37,0,0,0-2.64,3.2.32.32,0,0,0,0,.14V34.14h.67v-21a2.73,2.73,0,0,0,1.54.67,3.43,3.43,0,0,0,.56,0,5.38,5.38,0,0,0,2.32-.56C139.3,12.27,140.4,10.34,139.73,9Z"/><path class="cls-1" d="M170.33,12.58a2.78,2.78,0,0,0-2-1.56,4.73,4.73,0,0,0-2.89.31,4.8,4.8,0,0,0-2.21,1.89,3.19,3.19,0,0,0-.43,1.34.32.32,0,0,0,0,.14V35.47l-11.67,2.24V18.82a3.24,3.24,0,0,0,2.11.95,4.8,4.8,0,0,0,2.31-.4c2-.87,3.13-2.86,2.46-4.42s-2.87-2.13-4.89-1.25a4.15,4.15,0,0,0-2.64,3.22.33.33,0,0,0,0,.15V41a.4.4,0,0,0,.24.36l0,0h.15L163.19,39l0,0h0a.34.34,0,0,0,.22-.32V16.46a3,3,0,0,0,1.54.86,5,5,0,0,0,.56.09,4.94,4.94,0,0,0,2.33-.4C169.9,16.13,171,14.15,170.33,12.58Z"/><path class="cls-1" d="M194.79,8.28a2.5,2.5,0,0,0-2-1.41,4.86,4.86,0,0,0-2.89.57,4.75,4.75,0,0,0-2.64,3.5.4.4,0,0,0,0,.15V32.78l-11.44-3.24V10.46a2.67,2.67,0,0,0,1.53.74,3.64,3.64,0,0,0,.57,0,5.06,5.06,0,0,0,2.32-.61c2-1.07,3.12-3.18,2.45-4.7S179.8,4,177.78,5.09a4.71,4.71,0,0,0-2.64,3.49.41.41,0,0,0,0,.16V29.83h0v2.94a.3.3,0,0,0,0,.1.17.17,0,0,1,0,.05l0,.07,0,0,.06,0,.05,0h0l12.13,3.44h.09a.32.32,0,0,0,.2-.08.37.37,0,0,0,.14-.3V33.26s0,0,0,0V12.82a2.73,2.73,0,0,0,1.54.74,5.09,5.09,0,0,0,.56,0,5,5,0,0,0,2.32-.62C194.36,11.92,195.46,9.81,194.79,8.28Z"/><line class="cls-2" x1="111.24" y1="10.8" x2="111.24" y2="36.21"/><line class="cls-2" x1="259.23" y1="13.16" x2="259.23" y2="38.56"/><line class="cls-2" x1="200.3" y1="11.14" x2="200.3" y2="36.55"/><line class="cls-2" x1="360.73" y1="17.96" x2="360.73" y2="43.12"/><line class="cls-2" x1="431.9" y1="19.55" x2="431.9" y2="44.72"/><line class="cls-2" x1="517.56" y1="18.07" x2="517.56" y2="43.24"/><path class="cls-2" d="M10.42,16s89.3-12,308,0c166.82,9.15,253.21-1.82,253.21-1.82V39.32s-86.39,11-253.21,1.83c-218.66-12-308,0-308,0"/><path class="cls-2" d="M10.42,22.26s89.3-12,308,0c166.82,9.14,253.21-1.83,253.21-1.83"/><path class="cls-2" d="M10.42,28.55s89.3-12,308,0c166.82,9.15,253.21-1.82,253.21-1.82"/><path class="cls-2" d="M10.42,34.85s89.3-12,308,0C485.2,44,571.59,33,571.59,33"/><path class="cls-1" d="M426.28,20.88a2.48,2.48,0,0,0-2-1.29,5.19,5.19,0,0,0-2.88.52,4.37,4.37,0,0,0-2.64,3.2.32.32,0,0,0,0,.14V51.81l-11.6,1.28V27.54a3.13,3.13,0,0,0,2.09.69,5.38,5.38,0,0,0,2.31-.55c2-1,3.13-2.9,2.46-4.29s-2.87-1.74-4.89-.77a4.71,4.71,0,0,0-2.52,2.65.35.35,0,0,0-.13.26V53.17l-11.75,1.3V36.7a3.09,3.09,0,0,0,2.1.7,5.45,5.45,0,0,0,2.31-.55c2-1,3.12-2.9,2.45-4.3a2.5,2.5,0,0,0-2-1.29,5.24,5.24,0,0,0-2.89.53,4.55,4.55,0,0,0-2.59,2.91.35.35,0,0,0-.06.18V58l25.39-2.82V51.73h0V25a2.73,2.73,0,0,0,1.54.67,3.43,3.43,0,0,0,.56,0,5.38,5.38,0,0,0,2.32-.56A5.17,5.17,0,0,0,426,23.25,2.47,2.47,0,0,0,426.28,20.88Z"/><ellipse class="cls-3" cx="337.9" cy="14.59" rx="3.73" ry="2.47" transform="translate(27.03 147.81) rotate(-25.67)"/><line class="cls-4" x1="334.35" y1="15.39" x2="334.34" y2="37.32"/><path class="cls-1" d="M329.8,11.38a.34.34,0,0,0-.34-.34h0l-.08,0L317.2,7.93H317a.33.33,0,0,0-.27.32l-.17,18.17c-.94-.88-2.74-1-4.43-.18-2,1-3.13,2.9-2.46,4.3a2.48,2.48,0,0,0,2,1.29,5.44,5.44,0,0,0,.57,0,5.51,5.51,0,0,0,2.32-.55,4.4,4.4,0,0,0,2.64-3.2.32.32,0,0,0,0-.14l.15-16.62,11.7,3V29.5c-.94-.87-2.74-1-4.42-.16-2,1-3.12,2.9-2.45,4.29A2.7,2.7,0,0,0,324.81,35a5.45,5.45,0,0,0,2.31-.55,4.36,4.36,0,0,0,2.64-3.19.37.37,0,0,0,0-.15v-17h0V11.43h0Z"/><path class="cls-1" d="M380.3,13.59a.34.34,0,0,0-.34-.34h0a.34.34,0,0,0-.34.34V31.7a2.8,2.8,0,0,0-1.54-.67,5.18,5.18,0,0,0-2.88.52c-2,1-3.13,2.9-2.46,4.3a2.47,2.47,0,0,0,2,1.28,3.43,3.43,0,0,0,.56,0,5.38,5.38,0,0,0,2.32-.56,5.17,5.17,0,0,0,2.21-1.92,3,3,0,0,0,.43-1.28.28.28,0,0,0,0-.13Z"/><path class="cls-1" d="M355.19,11.38a.34.34,0,0,0-.34-.34l-.08,0L342.59,7.93h-.18l-.1,0h0a.32.32,0,0,0-.13.26V26.51a2.77,2.77,0,0,0-1.54-.68,5.18,5.18,0,0,0-2.88.52c-2,1-3.13,2.9-2.46,4.3a2.48,2.48,0,0,0,2,1.29,5.3,5.3,0,0,0,.57,0,5.41,5.41,0,0,0,2.32-.56,5.17,5.17,0,0,0,2.21-1.92,3,3,0,0,0,.43-1.28.28.28,0,0,0,0-.13V11.36l11.67,3V32.6c-.94-.86-2.74-1-4.42-.16a5.13,5.13,0,0,0-2.21,1.93,2.47,2.47,0,0,0-.25,2.37,2.73,2.73,0,0,0,2.58,1.32,5.32,5.32,0,0,0,2.31-.56,4.36,4.36,0,0,0,2.64-3.19.32.32,0,0,0,0-.14V14.1h0V11.43h0Z"/><circle class="cls-1" cx="383.75" cy="33.97" r="1.34"/><path class="cls-1" d="M309.25,22.5a2.44,2.44,0,0,0-2-1.31,5,5,0,0,0-2.88.53A4.44,4.44,0,0,0,301.73,25a.4.4,0,0,0,0,.15v9.94l-3.83.46a.35.35,0,0,0-.3.35v3.32a.32.32,0,0,0,.12.26.31.31,0,0,0,.22.09h0l3.75-.45v1.36l-3.83.46a.34.34,0,0,0-.3.34v3.33a.32.32,0,0,0,.12.26.31.31,0,0,0,.22.09h0l3.75-.45V45l-24,2.87V29.78a2.81,2.81,0,0,0,1.54.69,3.64,3.64,0,0,0,.57,0,5.43,5.43,0,0,0,2.32-.57c2-1,3.12-3,2.45-4.38a2.48,2.48,0,0,0-2-1.32,5.46,5.46,0,0,0-5.09,2.5,3.14,3.14,0,0,0-.44,1.3.32.32,0,0,0,0,.14v20h0v3.46a.36.36,0,0,0,.11.26.31.31,0,0,0,.22.09h0l24.68-3a.35.35,0,0,0,.3-.35v-22a2.75,2.75,0,0,0,1.54.69,3.43,3.43,0,0,0,.56,0,5.39,5.39,0,0,0,2.32-.57,5.25,5.25,0,0,0,2.21-2A2.57,2.57,0,0,0,309.25,22.5Z"/><path class="cls-1" d="M223,13.42a2.54,2.54,0,0,0-2-1.35,5.11,5.11,0,0,0-2.88.44,4.21,4.21,0,0,0-2.64,3.11.37.37,0,0,0,0,.15V35.38a.35.35,0,0,0,.34.35h0a.32.32,0,0,0,.34-.33v-18a2.92,2.92,0,0,0,1.54.72,3.43,3.43,0,0,0,.56.05,5.13,5.13,0,0,0,2.32-.49C222.61,16.73,223.71,14.84,223,13.42Z"/><path class="cls-1" d="M241.23,20h0a2.54,2.54,0,0,0-2-1.35,5.11,5.11,0,0,0-2.88.44,4.14,4.14,0,0,0-2.64,3.19s0,0,0,.06V42a.36.36,0,0,0,.34.35h0a.33.33,0,0,0,.34-.33V24a2.87,2.87,0,0,0,1.52.7,3.43,3.43,0,0,0,.56,0,5.13,5.13,0,0,0,2.32-.49A4.93,4.93,0,0,0,241,22.37,2.42,2.42,0,0,0,241.23,20Zm-1.07,1.33a7.37,7.37,0,0,1-4.52,2c-.59,0-1-.11-1.13-.33h0c-.21-.45.65-1.6,2.54-2.45A6.66,6.66,0,0,1,239.5,20c.58,0,1,.11,1.12.34h0C240.73,20.52,240.55,20.92,240.16,21.34Z"/><path class="cls-1" d="M231.56,18.47a.33.33,0,0,0,.22-.3V16.53a.31.31,0,0,0-.14-.26.3.3,0,0,0-.29-.05l-1.34.42V14a.34.34,0,0,0-.32-.33.32.32,0,0,0-.32.32v2.9l-2.07.66V14.46a.32.32,0,0,0-.32-.33.3.3,0,0,0-.32.31v3.28l-1.41.44a.33.33,0,0,0-.22.3V20.1a.35.35,0,0,0,.33.33l.1,0,1.2-.38v3.39l-1.41.45a.31.31,0,0,0-.22.3V25.8a.38.38,0,0,0,.14.27.33.33,0,0,0,.19.06h.1l1.2-.39v3.33a.32.32,0,0,0,.32.33.3.3,0,0,0,.32-.31V25.53l2.07-.66v3.69a.32.32,0,0,0,.32.33.3.3,0,0,0,.32-.31V24.66l1.55-.49a.31.31,0,0,0,.22-.3V22.24a.32.32,0,0,0-.14-.27.33.33,0,0,0-.29,0l-1.34.43V19Zm-2.19,4.08-2.07.66V19.83l2.07-.66Z"/><path class="cls-1" d="M457.69,17.5a2.48,2.48,0,0,0-2-1.29,5.23,5.23,0,0,0-2.89.52,4.38,4.38,0,0,0-2.63,3.2.33.33,0,0,0,0,.14V39.69a.35.35,0,0,0,.34.34h0a.34.34,0,0,0,.34-.34v-18a2.76,2.76,0,0,0,1.54.67,3.56,3.56,0,0,0,.57,0,5.41,5.41,0,0,0,2.32-.56,5.17,5.17,0,0,0,2.21-1.92A2.47,2.47,0,0,0,457.69,17.5Z"/><path class="cls-1" d="M540.72,18.25c-.67-1.4-2.86-1.74-4.89-.77a4.37,4.37,0,0,0-2.63,3.19.37.37,0,0,0,0,.15V42.38a.34.34,0,0,0,.34.34h0a.34.34,0,0,0,.34-.34v-20a3.09,3.09,0,0,0,2.12.71,5.45,5.45,0,0,0,2.31-.55C540.29,21.57,541.39,19.64,540.72,18.25Z"/><path class="cls-1" d="M561,23.41h0a2.45,2.45,0,0,0-2-1.29,5.19,5.19,0,0,0-2.88.52,4.31,4.31,0,0,0-2.64,3.27.15.15,0,0,0,0,.07V45.59a.34.34,0,0,0,.33.34h0a.34.34,0,0,0,.34-.34v-18a2.87,2.87,0,0,0,1.53.66,5.12,5.12,0,0,0,.56,0,5.51,5.51,0,0,0,2.32-.55,5.19,5.19,0,0,0,2.21-1.93A2.47,2.47,0,0,0,561,23.41Zm-1.07,1.36a6.79,6.79,0,0,1-2.08,1.47,6.88,6.88,0,0,1-2.45.71c-.58,0-1-.08-1.12-.31h0c-.21-.44.65-1.62,2.54-2.53a6.88,6.88,0,0,1,2.45-.71c.58,0,1,.08,1.12.31h0C560.46,23.93,560.28,24.34,559.89,24.77Z"/><path class="cls-1" d="M486.83,20.59a2.46,2.46,0,0,0-2-1.37,4.9,4.9,0,0,0-2.88.55,4.63,4.63,0,0,0-2.64,3.41.4.4,0,0,0,0,.15V43.85l-11.67,3.2V28.4a2.77,2.77,0,0,0,1.54.72,5.09,5.09,0,0,0,.56,0,5.17,5.17,0,0,0,2.32-.6c2-1,3.12-3.09,2.45-4.58a2.44,2.44,0,0,0-2-1.37,4.82,4.82,0,0,0-2.88.55,5.26,5.26,0,0,0-2.21,2.06,3.29,3.29,0,0,0-.44,1.36.59.59,0,0,0,0,.14V50.35a.34.34,0,0,0,.23.34l.06,0h.14l12.35-3.39,0,0h0A.34.34,0,0,0,480,47V25a2.65,2.65,0,0,0,1.54.72,3.43,3.43,0,0,0,.56,0,5.17,5.17,0,0,0,2.32-.6,5.3,5.3,0,0,0,2.21-2.05A2.79,2.79,0,0,0,486.83,20.59Z"/><path class="cls-1" d="M511.88,16.36c-.67-1.48-2.86-1.85-4.89-.81a5.21,5.21,0,0,0-2.2,2.05,3.29,3.29,0,0,0-.44,1.36.32.32,0,0,0,0,.14V40.19L492.87,37V18.48a2.65,2.65,0,0,0,1.54.72,3.43,3.43,0,0,0,.56,0,5.17,5.17,0,0,0,2.32-.6c2-1,3.13-3.08,2.45-4.57a2.44,2.44,0,0,0-2-1.37,4.82,4.82,0,0,0-2.88.55,5.3,5.3,0,0,0-2.21,2.05,3.21,3.21,0,0,0-.43,1.36.35.35,0,0,0,0,.14V37.32h0v2.84a.59.59,0,0,0,0,.13.05.05,0,0,1,0,0l0,.07,0,0,.06,0,.05,0h0l12.13,3.34h.09a.34.34,0,0,0,.21-.08.36.36,0,0,0,.13-.28V20.77a3,3,0,0,0,2.12.76,5.24,5.24,0,0,0,2.31-.59C511.45,19.9,512.55,17.85,511.88,16.36Z"/><line class="cls-4" x1="517.61" y1="19.44" x2="517.61" y2="42.89"/><path class="cls-1" d="M549,22.37a.33.33,0,0,0,.21-.31V20.43a.34.34,0,0,0-.13-.27.35.35,0,0,0-.3,0l-1.34.47V17.91a.32.32,0,1,0-.64,0v2.9l-2.06.72v-3a.33.33,0,1,0-.65,0v3.27l-1.41.49a.33.33,0,0,0-.21.31v1.63a.32.32,0,0,0,.32.32.22.22,0,0,0,.11,0l1.19-.41v3.38l-1.41.49a.33.33,0,0,0-.21.31v1.63a.32.32,0,0,0,.13.26.33.33,0,0,0,.19.06h.11l1.19-.42V33.1a.33.33,0,1,0,.65,0V29.55l2.06-.72v3.7a.32.32,0,1,0,.64,0V28.61l1.56-.54a.33.33,0,0,0,.21-.31V26.13a.32.32,0,0,0-.13-.26.36.36,0,0,0-.3-.05l-1.34.47V22.91Zm-2.2,4.15-2.06.72V23.85l2.06-.72Z"/><circle class="cls-1" cx="287.95" cy="23.92" r="1.29"/><circle class="cls-1" cx="291.87" cy="23.92" r="1.29"/><path class="cls-1" d="M300.3,21.22a.31.31,0,0,0,.22-.3V19.29a.32.32,0,0,0-.14-.27.33.33,0,0,0-.29,0l-1.34.47V16.77a.32.32,0,0,0-.64,0v2.9l-2.07.72v-3a.32.32,0,1,0-.64,0v3.27l-1.41.49a.33.33,0,0,0-.22.31v1.63a.34.34,0,0,0,.14.26.33.33,0,0,0,.19.06.18.18,0,0,0,.1,0l1.2-.41v3.38l-1.41.49a.33.33,0,0,0-.22.31v1.63a.34.34,0,0,0,.14.26.33.33,0,0,0,.19.06h.1l1.2-.42V32a.32.32,0,1,0,.64,0V28.41l2.07-.72v3.7a.32.32,0,0,0,.64,0V27.47l1.55-.54a.33.33,0,0,0,.22-.31V25a.33.33,0,0,0-.14-.27.33.33,0,0,0-.29,0l-1.34.47V21.77Zm-2.19,4.16L296,26.1V22.71l2.07-.72Z"/></g>
	<g id="Red_Dot" data-name="Red Dot"><path class="cls-5" d="M46.53,40.35a13.84,13.84,0,0,1-4.27,5,8.29,8.29,0,0,1-4.56,1.69,6.68,6.68,0,0,1-5.24-2.88q-2.31-2.88-2.31-8.75a21,21,0,0,1,1.53-8.25,14.66,14.66,0,0,1,4.12-5.74,9.78,9.78,0,0,1,6.39-2.11,28.42,28.42,0,0,1,3.33.28l1,.11,3.88.77v18a28.77,28.77,0,0,0,.87,7.81h-4A48.53,48.53,0,0,1,46.53,40.35Zm0-8.08v-8.6A13.25,13.25,0,0,0,42.69,23a7.2,7.2,0,0,0-5.95,3.17q-2.39,3.18-2.39,8.63a11.12,11.12,0,0,0,1.3,6,3.64,3.64,0,0,0,3,2c1.2,0,2.53-.69,4-2.09A15,15,0,0,0,45,37.81,10.45,10.45,0,0,0,46.53,32.27Z"/><path class="cls-5" d="M57.18,25.69a13.71,13.71,0,0,1,4.27-5A8.32,8.32,0,0,1,66,19a6.69,6.69,0,0,1,5.25,2.88q2.32,2.88,2.33,8.73A20.9,20.9,0,0,1,72,38.85a14.44,14.44,0,0,1-4.13,5.74,9.78,9.78,0,0,1-6.38,2.1,32,32,0,0,1-3.33-.25c-1.72-.27-4.87-1-4.87-1V7.87h3.86Zm0,7.08v9.6a14.22,14.22,0,0,0,3.87.6A7.2,7.2,0,0,0,67,39.83q2.4-3.15,2.4-8.63a11.08,11.08,0,0,0-1.3-6,3.67,3.67,0,0,0-3-2q-1.8,0-4,2.1A17.7,17.7,0,0,0,58,29.36,6.12,6.12,0,0,0,57.18,32.77Z"/><path class="cls-5" d="M94.45,45.55a20.37,20.37,0,0,1-7.4,1.51,10.8,10.8,0,0,1-6.23-1.84,12.53,12.53,0,0,1-4.23-5A16.42,16.42,0,0,1,75.07,33,14.86,14.86,0,0,1,78.52,23a10.62,10.62,0,0,1,8.32-4,21.22,21.22,0,0,1,7.61,1.55v4.26a16.06,16.06,0,0,0-7.26-2.12,7.26,7.26,0,0,0-4,1.2,7.63,7.63,0,0,0-2.89,3.75,13.83,13.83,0,0,0-1,5.25,13,13,0,0,0,2,6.84A6.67,6.67,0,0,0,87.41,43a16,16,0,0,0,2.51-.19,27.92,27.92,0,0,0,4.53-1.48Z"/><path class="cls-5" d="M94.45,56.75V52.62a18,18,0,0,0,5.48,1.09,6.49,6.49,0,0,0,3.29-.78,5.09,5.09,0,0,0,2.12-2.61,18.57,18.57,0,0,0,.76-6.39V23.42H96.24v-3.7H110V43.11q0,6.77-1.39,9.39a9.1,9.1,0,0,1-3.37,3.77,10.74,10.74,0,0,1-5.41,1.15A23.35,23.35,0,0,1,94.45,56.75Z"/><path class="cls-5" d="M111.21,44.93V40.21a14.6,14.6,0,0,0,4.93,2.45,17.41,17.41,0,0,0,4.43.71,6.56,6.56,0,0,0,4.21-1.08,3.38,3.38,0,0,0,1.29-2.71,2.93,2.93,0,0,0-.59-1.83,9.18,9.18,0,0,0-3-1.88l-1.34-.63L118.45,34c-2.88-1.28-4.7-2.48-5.46-3.58a6.76,6.76,0,0,1-1.13-3.95,7.18,7.18,0,0,1,2.21-5.41C115.54,19.68,118,19,121.28,19a20.17,20.17,0,0,1,7,1.23v4a19.2,19.2,0,0,0-7.21-1.56,6.48,6.48,0,0,0-3.83,1,2.92,2.92,0,0,0-1.38,2.45,2.7,2.7,0,0,0,1.19,2.3,20.76,20.76,0,0,0,3.88,2l2.62,1.1a13,13,0,0,1,5.07,3.27,6.72,6.72,0,0,1,1.44,4.39,7.55,7.55,0,0,1-2.31,5.69q-2.31,2.23-7.43,2.23A22.14,22.14,0,0,1,111.21,44.93Z"/><ellipse class="cls-6" cx="104.63" cy="11.97" rx="5.84" ry="4.5" transform="translate(11.31 60.78) rotate(-34.14)"/></g></svg>
